<svg xmlns="http://www.w3.org/2000/svg" viewBox="0 0 800 600" role="img" aria-labelledby="t6">
  <title id="t6">Placeholder photo of the waiting area — replace with an actual photograph</title>
  <defs>
    <linearGradient id="g6" x1="0" y1="0" x2="1" y2="1">
      <stop offset="0" stop-color="#f2f9f8"/><stop offset="1" stop-color="#dcefec"/>
    </linearGradient>
  </defs>
  <rect width="800" height="600" fill="url(#g6)"/>
  <rect x="0" y="440" width="800" height="160" fill="#e3f0ee"/>
  <!-- bench seats -->
  <g>
    <rect x="180" y="360" width="150" height="18" rx="6" fill="#163a5f"/>
    <rect x="190" y="378" width="16" height="60" fill="#163a5f"/>
    <rect x="304" y="378" width="16" height="60" fill="#163a5f"/>
    <rect x="190" y="330" width="140" height="34" rx="10" fill="#0f6e6a"/>
  </g>
  <g>
    <rect x="470" y="360" width="150" height="18" rx="6" fill="#163a5f"/>
    <rect x="480" y="378" width="16" height="60" fill="#163a5f"/>
    <rect x="594" y="378" width="16" height="60" fill="#163a5f"/>
    <rect x="480" y="330" width="140" height="34" rx="10" fill="#0f6e6a"/>
  </g>
  <!-- side table -->
  <rect x="368" y="400" width="64" height="10" rx="5" fill="#b8912b" opacity="0.5"/>
  <rect x="392" y="410" width="16" height="30" fill="#b8912b" opacity="0.5"/>
  <!-- plant -->
  <path d="M120 440c0-36 26-62 26-62s26 26 26 62z" fill="#0f6e6a" opacity="0.6"/>
  <rect x="136" y="440" width="20" height="34" fill="#8a5a3d"/>
  <g transform="translate(340,505)">
    <rect x="-90" y="0" width="180" height="40" rx="20" fill="#ffffff" opacity="0.9"/>
    <text x="0" y="26" text-anchor="middle" font-family="Segoe UI, Arial, sans-serif" font-size="16" font-weight="700" fill="#163a5f">Waiting Area</text>
  </g>
</svg>
